<svg width="150" height="21" viewBox="0 0 150 21" fill="none" xmlns="http://www.w3.org/2000/svg">
<path d="M10.993 16.748L4.821 19.993L6 13.12L1 8.253L7.9 7.253L10.986 1L14.072 7.253L20.972 8.253L15.972 13.12L17.151 19.993L10.993 16.748Z" stroke="white" stroke-width="2" stroke-linecap="round" stroke-linejoin="round"/>
<path d="M42.993 16.748L36.821 19.993L38 13.12L33 8.253L39.9 7.253L42.986 1L46.072 7.253L52.972 8.253L47.972 13.12L49.151 19.993L42.993 16.748Z" stroke="white" stroke-width="2" stroke-linecap="round" stroke-linejoin="round"/>
<path d="M74.993 16.748L68.821 19.993L70 13.12L65 8.253L71.9 7.253L74.986 1L78.072 7.253L84.972 8.253L79.972 13.12L81.151 19.993L74.993 16.748Z" stroke="white" stroke-width="2" stroke-linecap="round" stroke-linejoin="round"/>
<path d="M106.993 16.748L100.821 19.993L102 13.12L97 8.253L103.9 7.253L106.986 1L110.072 7.253L116.972 8.253L111.972 13.12L113.151 19.993L106.993 16.748Z" stroke="white" stroke-width="2" stroke-linecap="round" stroke-linejoin="round"/>
<path d="M138.993 16.748L132.821 19.993L134 13.12L129 8.253L135.9 7.253L138.986 1L142.072 7.253L148.972 8.253L143.972 13.12L145.151 19.993L138.993 16.748Z" stroke="white" stroke-width="2" stroke-linecap="round" stroke-linejoin="round"/>
</svg>
