<svg width="45" height="45" viewBox="0 0 45 45" fill="none" xmlns="http://www.w3.org/2000/svg">
<path d="M26.25 7.5H37.5V18.75H26.25V7.5Z" stroke="#FCF85D" stroke-width="2" stroke-linecap="round" stroke-linejoin="round"/>
<path d="M7.5 26.25H18.75V37.5H7.5V26.25Z" stroke="#FCF85D" stroke-width="2" stroke-linecap="round" stroke-linejoin="round"/>
<path d="M26.25 31.875C26.25 33.3668 26.8426 34.7976 27.8975 35.8525C28.9524 36.9074 30.3832 37.5 31.875 37.5C33.3668 37.5 34.7976 36.9074 35.8525 35.8525C36.9074 34.7976 37.5 33.3668 37.5 31.875C37.5 30.3832 36.9074 28.9524 35.8525 27.8975C34.7976 26.8426 33.3668 26.25 31.875 26.25C30.3832 26.25 28.9524 26.8426 27.8975 27.8975C26.8426 28.9524 26.25 30.3832 26.25 31.875Z" stroke="#FCF85D" stroke-width="2" stroke-linecap="round" stroke-linejoin="round"/>
<path d="M7.5 13.125C7.5 13.8637 7.6455 14.5951 7.92818 15.2776C8.21086 15.9601 8.6252 16.5801 9.14752 17.1025C9.66985 17.6248 10.2899 18.0391 10.9724 18.3218C11.6549 18.6045 12.3863 18.75 13.125 18.75C13.8637 18.75 14.5951 18.6045 15.2776 18.3218C15.9601 18.0391 16.5801 17.6248 17.1025 17.1025C17.6248 16.5801 18.0391 15.9601 18.3218 15.2776C18.6045 14.5951 18.75 13.8637 18.75 13.125C18.75 12.3863 18.6045 11.6549 18.3218 10.9724C18.0391 10.2899 17.6248 9.66985 17.1025 9.14752C16.5801 8.6252 15.9601 8.21086 15.2776 7.92818C14.5951 7.64549 13.8637 7.5 13.125 7.5C12.3863 7.5 11.6549 7.64549 10.9724 7.92818C10.2899 8.21086 9.66985 8.6252 9.14752 9.14752C8.6252 9.66985 8.21086 10.2899 7.92818 10.9724C7.6455 11.6549 7.5 12.3863 7.5 13.125Z" stroke="#FCF85D" stroke-width="2" stroke-linecap="round" stroke-linejoin="round"/>
</svg>
