<svg width="43" height="43" viewBox="0 0 43 43" fill="none" xmlns="http://www.w3.org/2000/svg">
<path d="M16.4126 19.4755C16.2334 19.4575 16.0184 19.4575 15.8213 19.4755C11.5571 19.3321 8.1709 15.8384 8.1709 11.5384C8.1709 7.14879 11.7184 3.58337 16.1259 3.58337C20.5154 3.58337 24.0808 7.14879 24.0808 11.5384C24.0629 15.8384 20.6766 19.3321 16.4126 19.4755Z" stroke="#FCF85D" stroke-width="1.5" stroke-linecap="round" stroke-linejoin="round"/>
<path opacity="0.4" d="M29.3999 7.16663C32.8757 7.16663 35.6707 9.97954 35.6707 13.4375C35.6707 16.8237 32.9832 19.5829 29.6328 19.7083C29.4895 19.6904 29.3282 19.6904 29.167 19.7083" stroke="#FCF85D" stroke-width="1.5" stroke-linecap="round" stroke-linejoin="round"/>
<path d="M7.45451 26.0866C3.11868 28.9891 3.11868 33.7191 7.45451 36.6037C12.3816 39.9004 20.462 39.9004 25.3891 36.6037C29.7249 33.7012 29.7249 28.9712 25.3891 26.0866C20.4799 22.8079 12.3995 22.8079 7.45451 26.0866Z" stroke="#FCF85D" stroke-width="1.5" stroke-linecap="round" stroke-linejoin="round"/>
<path opacity="0.4" d="M32.8589 35.8334C34.1489 35.5646 35.3672 35.045 36.3706 34.2746C39.1656 32.1784 39.1656 28.7205 36.3706 26.6242C35.3851 25.8717 34.1847 25.37 32.9126 25.0834" stroke="#FCF85D" stroke-width="1.5" stroke-linecap="round" stroke-linejoin="round"/>
</svg>
