<svg width="49" height="49" viewBox="0 0 49 49" fill="none" xmlns="http://www.w3.org/2000/svg">
<path d="M42.875 17.3542V36.2396C42.875 39.9042 39.9042 42.875 36.2396 42.875H12.7604C9.09577 42.875 6.125 39.9042 6.125 36.2396V17.3542H42.875ZM28.5733 21.8362C27.2177 21.8362 26.1409 22.1984 25.3434 22.9228C24.5459 23.6474 24.147 24.6276 24.147 25.8638C24.147 26.5749 24.3283 27.2079 24.6905 27.7628C25.0527 28.3179 25.5462 28.7548 26.1709 29.0737C25.4265 29.4061 24.8483 29.8812 24.4363 30.4994C24.0241 31.1175 23.8181 31.8153 23.8181 32.593C23.8181 33.8623 24.2517 34.8725 25.119 35.6234C25.9863 36.3745 27.1411 36.75 28.5833 36.75C30.0188 36.75 31.1687 36.3762 32.0327 35.6285C32.8966 34.8809 33.3286 33.869 33.3286 32.593C33.3286 31.822 33.1242 31.1307 32.7155 30.5192C32.3067 29.908 31.7236 29.4261 30.966 29.0737C31.5972 28.7548 32.0958 28.3179 32.4613 27.7628C32.8269 27.2079 33.0097 26.5749 33.0097 25.8638C33.0097 24.6276 32.6109 23.6474 31.8133 22.9228C31.0158 22.1984 29.9357 21.8362 28.5733 21.8362ZM20.8652 21.9859H20.5563L14.8938 24.0694V26.1129L18.4528 24.8967V36.5505H20.8652V21.9859ZM28.5633 30.0707C29.2679 30.0707 29.8345 30.2918 30.2632 30.7336C30.6918 31.1756 30.9061 31.7555 30.9061 32.4733C30.9061 33.211 30.7018 33.7859 30.293 34.1979C29.8843 34.6099 29.3145 34.8159 28.5833 34.8159C27.8522 34.8159 27.2791 34.6034 26.8636 34.1779C26.4484 33.7526 26.2405 33.1844 26.2405 32.4733C26.2405 31.7489 26.4516 31.1673 26.8736 30.7287C27.2957 30.29 27.859 30.0707 28.5633 30.0707ZM28.5733 23.7803C29.1915 23.7803 29.6832 23.9847 30.0488 24.3934C30.4143 24.8022 30.597 25.3222 30.597 25.9535C30.597 26.618 30.4159 27.1464 30.0537 27.5386C29.6915 27.9306 29.2013 28.1268 28.5833 28.1268C27.9653 28.1268 27.4751 27.9306 27.1129 27.5386C26.7507 27.1464 26.5696 26.618 26.5696 25.9535C26.5696 25.2822 26.7491 24.7521 27.1078 24.3634C27.4667 23.9747 27.9553 23.7803 28.5733 23.7803ZM36.2396 6.125C39.9042 6.125 42.875 9.09577 42.875 12.7604V14.2917H6.125V12.7604C6.125 9.09577 9.09577 6.125 12.7604 6.125H36.2396Z" fill="#FCF85D"/>
</svg>
