<svg width="26" height="25" viewBox="0 0 26 25" fill="none" xmlns="http://www.w3.org/2000/svg">
<path d="M19.1569 6.33804C18.8922 6.33804 18.6778 6.12355 18.6778 5.85896C18.6778 5.59438 18.8922 5.37988 19.1569 5.37988" stroke="#FCF85D" stroke-width="2" stroke-linecap="round" stroke-linejoin="round"/>
<path d="M19.157 6.33804C19.4216 6.33804 19.6361 6.12355 19.6361 5.85896C19.6361 5.59438 19.4216 5.37988 19.157 5.37988" stroke="#FCF85D" stroke-width="2" stroke-linecap="round" stroke-linejoin="round"/>
<path d="M1 5.9307C1 3.20756 3.20754 1 5.9307 1H19.0793C21.8024 1 24.01 3.20756 24.01 5.9307V19.0793C24.01 21.8024 21.8024 24.01 19.0793 24.01H5.9307C3.20754 24.01 1 21.8024 1 19.0793V5.9307Z" stroke="#FCF85D" stroke-width="2" stroke-linecap="round" stroke-linejoin="round"/>
<path d="M7.61847 12.497C7.61847 13.1387 7.74487 13.7741 7.99044 14.367C8.23602 14.9598 8.59596 15.4985 9.04972 15.9523C9.50348 16.4061 10.0422 16.766 10.635 17.0116C11.2279 17.2572 11.8634 17.3836 12.5051 17.3836C13.1468 17.3836 13.7822 17.2572 14.3751 17.0116C14.968 16.766 15.5067 16.4061 15.9604 15.9523C16.4142 15.4985 16.7741 14.9598 17.0197 14.367C17.2653 13.7741 17.3917 13.1387 17.3917 12.497C17.3917 11.2009 16.8768 9.95802 15.9604 9.0416C15.044 8.12519 13.8011 7.61035 12.5051 7.61035C11.2091 7.61035 9.96614 8.12519 9.04972 9.0416C8.13331 9.95802 7.61847 11.2009 7.61847 12.497Z" stroke="#FCF85D" stroke-width="2" stroke-linecap="round" stroke-linejoin="round"/>
</svg>
