<svg width="24" height="25" viewBox="0 0 24 25" fill="none" xmlns="http://www.w3.org/2000/svg">
<path d="M23.6492 1.04042C23.6345 0.788134 23.5276 0.550039 23.3489 0.37134C23.1702 0.192641 22.9321 0.0857812 22.6798 0.071048C12.8662 -0.505163 5.00548 2.44937 1.65392 7.99234C0.492171 9.88843 -0.0803105 12.0868 0.00907642 14.3087C0.0674224 15.7296 0.35651 17.1315 0.865014 18.4595C0.894894 18.5413 0.944972 18.6141 1.01058 18.6713C1.0762 18.7284 1.15521 18.768 1.24026 18.7864C1.32532 18.8048 1.41364 18.8014 1.49702 18.7765C1.58039 18.7516 1.65609 18.7059 1.71708 18.6439L12.6741 7.51925C12.7699 7.42344 12.8837 7.34743 13.0089 7.29558C13.1341 7.24372 13.2682 7.21704 13.4037 7.21704C13.5392 7.21704 13.6734 7.24372 13.7986 7.29558C13.9238 7.34743 14.0375 7.42344 14.1333 7.51925C14.2291 7.61506 14.3052 7.72881 14.357 7.854C14.4089 7.97918 14.4355 8.11336 14.4355 8.24886C14.4355 8.38436 14.4089 8.51853 14.357 8.64372C14.3052 8.76891 14.2291 8.88266 14.1333 8.97847L2.15923 21.133L0.330053 22.9622C0.13982 23.1474 0.0262495 23.3974 0.0119192 23.6625C-0.00241113 23.9277 0.0835488 24.1884 0.252709 24.3931C0.34535 24.5004 0.459112 24.5874 0.586894 24.6487C0.714675 24.7101 0.853731 24.7444 0.99538 24.7496C1.13703 24.7548 1.27823 24.7308 1.41017 24.679C1.5421 24.6272 1.66194 24.5487 1.7622 24.4485L3.92654 22.2842C5.74927 23.1659 7.58877 23.6467 9.41279 23.7112C9.5563 23.7163 9.69939 23.7189 9.84204 23.7189C11.9192 23.7242 13.957 23.1521 15.7279 22.0663C21.2709 18.7148 24.2267 10.8553 23.6492 1.04042Z" fill="#FCF85D"/>
</svg>
