<svg width="41" height="41" viewBox="0 0 41 41" fill="none" xmlns="http://www.w3.org/2000/svg">
<path d="M24.7707 15.375C24.7707 17.7337 22.8585 19.6458 20.4998 19.6458C18.1411 19.6458 16.229 17.7337 16.229 15.375C16.229 13.0162 18.1411 11.1041 20.4998 11.1041C22.8585 11.1041 24.7707 13.0162 24.7707 15.375Z" stroke="#FCF85D" stroke-width="1.5"/>
<path d="M22.6479 29.8849C22.0717 30.4397 21.3016 30.7499 20.5002 30.7499C19.6986 30.7499 18.9285 30.4397 18.3523 29.8849C13.0759 24.7722 6.00495 19.0607 9.45326 10.7688C11.3177 6.28546 15.7933 3.41663 20.5002 3.41663C25.207 3.41663 29.6825 6.28548 31.5469 10.7688C34.9909 19.0503 27.9372 24.7897 22.6479 29.8849Z" stroke="#FCF85D" stroke-width="1.5"/>
<path d="M30.75 34.1666C30.75 36.0537 26.1609 37.5833 20.5 37.5833C14.8391 37.5833 10.25 36.0537 10.25 34.1666" stroke="#FCF85D" stroke-width="1.5" stroke-linecap="round"/>
</svg>
