<svg width="29" height="29" viewBox="0 0 29 29" fill="none" xmlns="http://www.w3.org/2000/svg">
<g clip-path="url(#clip0_64_38)">
<path fill-rule="evenodd" clip-rule="evenodd" d="M2.35142 7.18879C3.67333 5.29533 5.50033 4 7.25 4C9.24858 4 11.0152 5.305 12.4918 6.81904C14.0082 8.37296 15.4727 10.4163 16.8393 12.3701L17.2973 13.0238C18.5177 14.7759 19.6608 16.412 20.7592 17.6663C21.373 18.3671 21.9312 18.8988 22.4351 19.2492C22.9426 19.6008 23.3088 19.7083 23.5625 19.7083C24.389 19.7083 25.1007 19.3797 25.6287 18.7356C26.1713 18.0747 26.5833 16.9956 26.5833 15.426C26.5833 12.4052 25.729 10.0948 24.6657 8.57113C23.5565 6.97975 22.3663 6.41667 21.75 6.41667C20.8027 6.41667 19.6548 7.06312 18.2712 8.47083C18.1615 8.58968 18.029 8.68529 17.8816 8.75198C17.7342 8.81868 17.575 8.8551 17.4133 8.8591C17.2516 8.86309 17.0907 8.83458 16.9402 8.77524C16.7897 8.7159 16.6527 8.62696 16.5372 8.51367C16.4217 8.40039 16.3302 8.26507 16.268 8.11574C16.2058 7.96642 16.1742 7.80612 16.1751 7.64436C16.176 7.48261 16.2094 7.32267 16.2733 7.17405C16.3371 7.02543 16.4302 6.89115 16.5469 6.77917C18.0138 5.28446 19.7683 4 21.75 4C23.4997 4 25.3279 5.29533 26.6486 7.18879C28.0152 9.1475 29 11.9472 29 15.426C29 17.4028 28.4804 19.0703 27.498 20.2678C27.0245 20.854 26.4246 21.3256 25.743 21.6472C25.0615 21.9689 24.3161 22.1322 23.5625 22.125C22.6333 22.125 21.7887 21.742 21.0576 21.2345C20.323 20.7258 19.6161 20.0298 18.9406 19.2588C17.748 17.8958 16.524 16.1401 15.318 14.411L14.8589 13.7549C13.4778 11.7817 12.1208 9.89787 10.7626 8.50708C9.36458 7.07521 8.207 6.41667 7.25 6.41667C6.63496 6.41667 5.44354 6.97975 4.33308 8.57113C3.26975 10.0948 2.41667 12.404 2.41667 15.4272C2.41667 16.9956 2.82871 18.0735 3.37125 18.7356C3.61802 19.0453 3.93271 19.2942 4.291 19.4628C4.64928 19.6315 5.04156 19.7155 5.4375 19.7083C5.90271 19.7083 6.63496 19.3495 7.68742 18.268C8.68913 17.2385 9.75125 15.803 10.8955 14.179C10.9869 14.0493 11.103 13.9388 11.2371 13.854C11.3712 13.7691 11.5207 13.7115 11.677 13.6844C11.8334 13.6573 11.9935 13.6612 12.1484 13.696C12.3032 13.7308 12.4496 13.7958 12.5794 13.8872C12.7091 13.9786 12.8195 14.0946 12.9044 14.2287C12.9893 14.3628 13.0469 14.5123 13.074 14.6687C13.1011 14.825 13.0971 14.9852 13.0623 15.14C13.0275 15.2948 12.9626 15.4413 12.8712 15.571C11.7329 17.1865 10.5705 18.7707 9.41896 19.9536C8.31938 21.0834 6.96967 22.125 5.4375 22.125C4.68393 22.1322 3.9385 21.9689 3.25697 21.6472C2.57544 21.3256 1.97548 20.854 1.50196 20.2678C0.519583 19.0703 0 17.404 0 15.426C0 11.9484 0.984792 9.14629 2.35142 7.18879Z" fill="#FCF85D"/>
</g>
<defs>
<clipPath id="clip0_64_38">
<rect width="29" height="29" fill="white"/>
</clipPath>
</defs>
</svg>
