<svg width="70" height="70" viewBox="0 0 70 70" fill="none" xmlns="http://www.w3.org/2000/svg">
<g clip-path="url(#clip0_34_105)">
<path d="M5.83333 52.1208C5.05978 52.1208 4.31792 52.4281 3.77094 52.9751C3.22395 53.5221 2.91666 54.264 2.91666 55.0375V59.4125C2.91666 59.6059 2.99349 59.7914 3.13023 59.9281C3.26698 60.0649 3.45244 60.1417 3.64583 60.1417H13.8542C14.0476 60.1417 14.233 60.0649 14.3698 59.9281C14.5065 59.7914 14.5833 59.6059 14.5833 59.4125V55.0375C14.5833 54.264 14.276 53.5221 13.7291 52.9751C13.1821 52.4281 12.4402 52.1208 11.6667 52.1208H5.83333Z" fill="#FCF85D"/>
<path d="M23.3333 43.3708C22.5598 43.3708 21.8179 43.6781 21.2709 44.2251C20.724 44.7721 20.4167 45.514 20.4167 46.2875V59.4125C20.4167 59.6059 20.4935 59.7914 20.6302 59.9281C20.767 60.0649 20.9524 60.1417 21.1458 60.1417H31.3542C31.5476 60.1417 31.733 60.0649 31.8698 59.9281C32.0065 59.7914 32.0833 59.6059 32.0833 59.4125V46.2875C32.0833 45.514 31.776 44.7721 31.2291 44.2251C30.6821 43.6781 29.9402 43.3708 29.1667 43.3708H23.3333Z" fill="#FCF85D"/>
<path d="M40.8333 33.1624C40.0598 33.1624 39.3179 33.4696 38.7709 34.0166C38.224 34.5636 37.9167 35.3055 37.9167 36.079V59.4124C37.9167 59.6057 37.9935 59.7912 38.1302 59.9279C38.267 60.0647 38.4524 60.1415 38.6458 60.1415H48.8542C49.0476 60.1415 49.233 60.0647 49.3698 59.9279C49.5065 59.7912 49.5833 59.6057 49.5833 59.4124V36.079C49.5833 35.3055 49.276 34.5636 48.7291 34.0166C48.1821 33.4696 47.4402 33.1624 46.6667 33.1624H40.8333Z" fill="#FCF85D"/>
<path d="M56.1458 60.1417H66.3542C66.5476 60.1417 66.733 60.0649 66.8698 59.9281C67.0065 59.7914 67.0833 59.6059 67.0833 59.4125V24.4125C67.0833 23.639 66.7761 22.8971 66.2291 22.3501C65.6821 21.8031 64.9402 21.4958 64.1667 21.4958H58.3333C57.5598 21.4958 56.8179 21.8031 56.2709 22.3501C55.724 22.8971 55.4167 23.639 55.4167 24.4125V59.4125C55.4167 59.6059 55.4935 59.7914 55.6302 59.9281C55.767 60.0649 55.9525 60.1417 56.1458 60.1417Z" fill="#FCF85D"/>
<path d="M52.7042 12.2791L53.6083 13.6208C53.8064 13.9185 54.0754 14.1623 54.391 14.3303C54.7067 14.4983 55.0591 14.5852 55.4167 14.5833C55.788 14.5698 56.1496 14.4608 56.4664 14.2666C56.7832 14.0724 57.0445 13.7997 57.225 13.475L63.0583 3.26664C63.2727 2.92061 63.3863 2.52162 63.3863 2.11456C63.3863 1.70749 63.2727 1.3085 63.0583 0.962472C62.8428 0.619358 62.5326 0.345923 62.1652 0.175141C61.7977 0.00435871 61.3887 -0.0564764 60.9875 -2.80142e-05L49.3208 1.45831C48.9512 1.50505 48.5996 1.64544 48.2995 1.86614C47.9993 2.08685 47.7605 2.38057 47.6056 2.71945C47.4508 3.05833 47.3851 3.43114 47.4147 3.80254C47.4444 4.17393 47.5684 4.5316 47.775 4.84164L48.65 6.1833C48.7039 6.26112 48.7414 6.34906 48.7603 6.44178C48.7792 6.53451 48.7791 6.63011 48.76 6.72281C48.7409 6.8155 48.7033 6.90336 48.6493 6.98108C48.5952 7.05879 48.5261 7.12475 48.4458 7.17497L7.14583 34.7666C6.82522 34.9785 6.54964 35.2517 6.33493 35.5704C6.12022 35.8892 5.97063 36.2472 5.89474 36.624C5.81885 37.0007 5.81816 37.3887 5.89271 37.7657C5.96727 38.1427 6.11559 38.5013 6.32917 38.8208C6.59671 39.2166 6.95739 39.5407 7.37951 39.7644C7.80162 39.9882 8.27224 40.1049 8.75 40.1041C9.32342 40.1107 9.88446 39.9373 10.3542 39.6083L51.6833 12.075C51.7635 12.0204 51.8537 11.9824 51.9487 11.9631C52.0437 11.9439 52.1416 11.9437 52.2366 11.9628C52.3317 11.9818 52.422 12.0195 52.5023 12.0739C52.5825 12.1282 52.6512 12.198 52.7042 12.2791Z" fill="#FCF85D"/>
<path d="M2.91666 70.0001H67.0833C67.7764 69.9985 68.4462 69.7502 68.9729 69.2997C69.4995 68.8492 69.8485 68.2258 69.9573 67.5413C70.0661 66.8569 69.9276 66.156 69.5667 65.5644C69.2057 64.9728 68.6459 64.529 67.9875 64.3126C67.695 64.2193 67.3903 64.1702 67.0833 64.1667H2.91666C2.60971 64.1702 2.30497 64.2193 2.0125 64.3126C1.35409 64.529 0.794264 64.9728 0.433318 65.5644C0.0723712 66.156 -0.0661022 66.8569 0.0427093 67.5413C0.151521 68.2258 0.500505 68.8492 1.02713 69.2997C1.55376 69.7502 2.22361 69.9985 2.91666 70.0001Z" fill="#FCF85D"/>
</g>
<defs>
<clipPath id="clip0_34_105">
<rect width="70" height="70" fill="white"/>
</clipPath>
</defs>
</svg>
