<svg width="68" height="68" viewBox="0 0 68 68" fill="none" xmlns="http://www.w3.org/2000/svg">
<g clip-path="url(#clip0_34_115)">
<path fill-rule="evenodd" clip-rule="evenodd" d="M26.0672 61.2027C25.457 60.7893 24.9058 60.2952 24.4286 59.7336L23.9201 59.4228L26.2932 56.8802L28.4404 54.507C28.541 54.4441 28.6277 54.3614 28.6954 54.2639C28.7629 54.1664 28.8102 54.0565 28.834 53.94C28.8578 53.8239 28.8575 53.704 28.8337 53.5879C28.8096 53.4717 28.7623 53.3615 28.6946 53.264C28.6289 53.1626 28.5436 53.0753 28.4436 53.0073C28.3438 52.9393 28.2312 52.892 28.1126 52.8685C27.9941 52.8447 27.872 52.845 27.7536 52.8693C27.6352 52.8934 27.5229 52.9413 27.4233 53.0099L24.4569 54.9592C23.8071 55.4394 22.6206 56.0044 21.6318 56.6824C21.1132 57.0927 20.6811 57.6016 20.3605 58.1798C20.2179 58.4748 20.1438 58.7984 20.1438 59.1262C20.1438 59.454 20.2179 59.7776 20.3605 60.0725C20.7895 60.9183 21.3742 61.6753 22.0838 62.3043C22.6852 62.7679 23.3283 63.1747 24.0049 63.5193C25.3892 64.1689 26.83 64.5928 28.2426 65.2425C28.4793 65.3776 28.7598 65.415 29.0235 65.3462C29.2873 65.2776 29.514 65.1088 29.6551 64.8753C29.7299 64.7603 29.7798 64.6308 29.8019 64.4951C29.8237 64.3596 29.8172 64.2211 29.7826 64.0882C29.7483 63.9553 29.6863 63.8309 29.6013 63.7233C29.516 63.6156 29.4092 63.5269 29.2879 63.4629C28.3838 62.5588 27.1408 61.9371 26.0672 61.2027Z" fill="#FCF85D"/>
<path fill-rule="evenodd" clip-rule="evenodd" d="M37.283 49.2525C37.0577 49.1777 36.8127 49.1919 36.5976 49.2916C36.3823 49.3913 36.2131 49.5693 36.1247 49.7891C35.1923 51.5974 34.1471 53.2923 33.2996 55.1288C32.9199 55.9018 32.5802 56.6937 32.2824 57.5018C32 58.3212 31.7175 59.1403 31.4914 59.9597C30.9264 61.9373 30.5309 63.9147 30.1353 65.9207C30.0962 66.0488 30.0826 66.1831 30.0957 66.3162C30.1084 66.4497 30.1475 66.5789 30.2104 66.697C30.2733 66.8152 30.3592 66.9198 30.4626 67.0048C30.566 67.0895 30.6853 67.1532 30.8134 67.192C31.0757 67.2719 31.3588 67.2459 31.6019 67.1189C31.845 66.992 32.0286 66.7747 32.113 66.514C32.9041 64.6211 33.8362 62.8412 34.6556 60.8638C35.1923 59.5925 35.7009 58.3492 36.1247 57.0498C36.8591 54.8461 37.283 52.5862 37.8196 50.3544C37.8851 50.1368 37.8661 49.9028 37.7666 49.6985C37.6672 49.4945 37.4944 49.3352 37.283 49.2525Z" fill="#FCF85D"/>
<path fill-rule="evenodd" clip-rule="evenodd" d="M45.617 55.2981C44.7083 54.7388 43.7648 54.2387 42.7918 53.8007C41.8772 53.368 40.9332 52.9997 39.9667 52.6991C39.8576 52.6472 39.7392 52.6178 39.6185 52.6124C39.4978 52.6073 39.3771 52.6263 39.2641 52.6685C39.1507 52.7107 39.047 52.775 38.9592 52.8578C38.8711 52.9408 38.8008 53.0405 38.7521 53.151C38.7008 53.2581 38.6716 53.3745 38.6668 53.4933C38.6617 53.612 38.681 53.7304 38.7235 53.8412C38.7657 53.9523 38.83 54.0534 38.9127 54.1387C38.9952 54.224 39.0943 54.2917 39.204 54.3376C39.984 54.8329 40.7297 55.3803 41.4358 55.9761C42.1441 56.5536 42.8139 57.1766 43.4418 57.8407L43.7807 58.0102C43.4616 58.5182 43.1027 59.0001 42.7071 59.4509L41.3228 61.0331L38.8932 63.491C38.6617 63.6414 38.4991 63.8772 38.4407 64.1472C38.3823 64.4172 38.4333 64.6994 38.5824 64.9317C38.7419 65.153 38.9793 65.3054 39.2471 65.3579C39.5145 65.4103 39.7922 65.359 40.0234 65.2142L43.1874 63.1238L45.052 61.7111C45.6643 61.1427 46.2222 60.5185 46.7188 59.8465C47.1314 59.2495 47.3932 58.5613 47.4816 57.8407C47.5252 57.5775 47.5068 57.3078 47.4286 57.0531C47.3501 56.7981 47.2135 56.5649 47.0297 56.3717C46.5953 55.9682 46.1221 55.6086 45.617 55.2981Z" fill="#FCF85D"/>
<path fill-rule="evenodd" clip-rule="evenodd" d="M40.2212 23.9392C40.2626 23.6712 40.2413 23.3973 40.1589 23.139C40.0764 22.8806 39.9353 22.645 39.7463 22.4505C39.5573 22.2561 39.3256 22.1082 39.0697 22.0184C38.8139 21.9287 38.5407 21.8995 38.2719 21.9333C37.8061 21.9901 37.3771 22.2155 37.066 22.5668C36.7549 22.9181 36.5832 23.3711 36.5832 23.8403C36.5832 24.3095 36.7549 24.7625 37.066 25.1138C37.3771 25.4651 37.8061 25.6905 38.2719 25.7473C38.5235 25.781 38.7799 25.7587 39.0218 25.6818C39.2641 25.6049 39.4862 25.4755 39.6727 25.3027C39.8588 25.1299 40.0047 24.9181 40.0994 24.6824C40.1943 24.4466 40.2359 24.1928 40.2212 23.9392Z" fill="#FCF85D"/>
<path fill-rule="evenodd" clip-rule="evenodd" d="M29.9093 24.2219C29.9509 23.9539 29.9297 23.68 29.8472 23.4217C29.7648 23.1634 29.6237 22.9277 29.4347 22.7333C29.2457 22.5388 29.014 22.3909 28.7581 22.3011C28.5023 22.2114 28.2291 22.1823 27.9601 22.2161C27.4943 22.2729 27.0654 22.4982 26.7543 22.8495C26.4433 23.2008 26.2715 23.6538 26.2715 24.123C26.2715 24.5923 26.4433 25.0453 26.7543 25.3966C27.0654 25.7479 27.4943 25.9732 27.9601 26.03C28.2101 26.0539 28.4623 26.0247 28.7003 25.9443C28.938 25.8639 29.1562 25.734 29.3404 25.5632C29.5245 25.3924 29.6704 25.1846 29.7685 24.9535C29.8665 24.7223 29.9147 24.473 29.9093 24.2219Z" fill="#FCF85D"/>
<path fill-rule="evenodd" clip-rule="evenodd" d="M29.9659 33.2622C30.5714 33.6167 31.2457 33.8382 31.9436 33.9119C32.6151 33.9918 33.2956 33.9436 33.9493 33.7708C35.4351 33.3982 36.75 32.5315 37.6785 31.3129C37.8718 31.1171 37.98 30.8533 37.98 30.5782C37.98 30.3034 37.8718 30.0396 37.6785 29.8438C37.4827 29.6506 37.219 29.5423 36.9438 29.5423C36.669 29.5423 36.4049 29.6506 36.2094 29.8438C35.6431 30.1988 35.0101 30.4343 34.3494 30.5365C33.6889 30.6385 33.0143 30.6045 32.3672 30.4371C32.0141 30.3986 31.6648 30.3323 31.3219 30.2393C30.4079 30.0747 29.5902 29.5701 29.0335 28.8266C28.9343 28.6036 28.7515 28.428 28.5243 28.3382C28.2972 28.2485 28.0438 28.2514 27.8187 28.3464C27.7067 28.3894 27.6047 28.4552 27.519 28.5393C27.4334 28.6235 27.366 28.7241 27.3209 28.8354C27.2759 28.9468 27.2542 29.066 27.2572 29.1862C27.2602 29.306 27.2879 29.4242 27.3385 29.533C27.4775 30.3087 27.7848 31.0446 28.2387 31.6889C28.6926 32.3332 29.2822 32.8701 29.9659 33.2622Z" fill="#FCF85D"/>
<path fill-rule="evenodd" clip-rule="evenodd" d="M13.3541 52.7271C13.1842 53.8398 13.0992 54.9638 13.0999 56.0892C13.0438 57.2089 13.0438 58.3312 13.0999 59.4509C13.3386 62.059 13.8113 64.6402 14.5124 67.1635C14.5362 67.2956 14.5859 67.4214 14.6585 67.5339C14.7311 67.6466 14.8252 67.7438 14.9354 67.8197C15.0457 67.896 15.1699 67.9495 15.301 67.9776C15.432 68.0056 15.5673 68.0073 15.699 67.9829C15.8326 67.9628 15.9607 67.9155 16.0753 67.8438C16.1899 67.7724 16.2887 67.6781 16.3655 67.567C16.4422 67.4557 16.4954 67.3299 16.5217 67.1975C16.548 67.065 16.5468 66.9284 16.5183 66.7963C16.5183 65.3836 16.3205 63.9712 16.2923 62.5305C16.264 61.0894 16.2923 59.7054 16.2923 58.2927V49.0262C16.2923 46.8227 13.9192 48.8285 13.4671 50.4389C13.5802 51.3711 13.4954 51.795 13.3541 52.7271Z" fill="#FCF85D"/>
<path fill-rule="evenodd" clip-rule="evenodd" d="M42.9049 40.9465C42.6531 40.8383 42.3692 40.8309 42.1116 40.9256C41.8543 41.0199 41.6427 41.2095 41.5206 41.4551C40.8508 42.4884 39.9407 43.3441 38.8683 43.9493C37.7959 44.5545 36.5928 44.8908 35.362 44.9299C33.9111 45.107 32.4395 44.9821 31.0395 44.5627C30.1258 44.3227 29.2704 43.9 28.5252 43.3197C27.9993 42.8789 27.5752 42.3295 27.282 41.7093C27.282 41.4551 26.8865 41.229 26.1238 41.7093C26.1238 41.7093 25.1632 42.7265 25.3045 43.0937C25.5468 43.938 25.9711 44.7191 26.5475 45.3818C27.6873 46.7189 29.1879 47.6998 30.8701 48.207C32.4902 48.6544 34.1916 48.7221 35.8423 48.4047C37.514 48.1361 39.0896 47.4451 40.4195 46.3968C41.7495 45.3487 42.7896 43.9782 43.4419 42.4156C43.5169 42.2864 43.5626 42.1425 43.5756 41.9937C43.5889 41.8453 43.5691 41.6954 43.5178 41.5551C43.4668 41.4149 43.3852 41.2877 43.2792 41.1826C43.1733 41.0774 43.0455 40.9967 42.9049 40.9465Z" fill="#FCF85D"/>
<path fill-rule="evenodd" clip-rule="evenodd" d="M51.2672 53.038C51.2672 54.7331 51.6627 56.428 51.8888 58.1232C52.256 60.6375 52.7079 63.1238 53.0187 65.6945C53.0187 65.9642 53.1258 66.2229 53.3168 66.4136C53.5075 66.6045 53.7662 66.7116 54.0359 66.7116C54.3056 66.7116 54.5643 66.6045 54.755 66.4136C54.9457 66.2229 55.0528 65.9642 55.0528 65.6945C55.0528 63.1238 55.2789 60.6092 55.0528 58.0666C55.0528 56.965 55.0528 55.8914 54.7986 54.8179C54.6983 53.7344 54.5283 52.6586 54.2901 51.5972C54.1705 50.8917 54.0101 50.1936 53.8098 49.5065C53.5273 48.3766 51.3802 46.3425 50.8152 47.8396C50.9847 50.0715 50.9847 50.7778 51.2672 53.038Z" fill="#FCF85D"/>
<path fill-rule="evenodd" clip-rule="evenodd" d="M65.6472 61.4006C65.2128 59.6391 64.6266 57.919 63.8956 56.2587C62.6382 53.5279 61.0439 50.9655 59.1492 48.6311C57.2248 46.3075 55.0128 44.238 52.5668 42.4723C49.232 40.111 45.4248 38.5013 41.4075 37.7542C42.3784 36.9314 43.2338 35.9811 43.9501 34.9291C46.1439 31.5755 47.2671 27.6347 47.1707 23.6286C47.1707 23.3514 47.0608 23.0855 46.8647 22.8895C46.6687 22.6934 46.4029 22.5833 46.1255 22.5833C45.8484 22.5833 45.5824 22.6934 45.3863 22.8895C45.1902 23.0855 45.0803 23.3514 45.0803 23.6286C44.9301 26.5685 44.0464 29.4239 42.5093 31.9345C41.2222 34.2785 39.0748 36.031 36.5203 36.822C34.2859 37.4046 31.9257 37.2762 29.7681 36.4545C28.2883 35.9494 26.9107 35.1841 25.6999 34.1947C24.1553 32.9061 22.9489 31.2596 22.1857 29.3984C21.4225 27.5371 21.1257 25.5177 21.321 23.5156C21.341 23.3983 21.3369 23.2782 21.3089 23.1626C21.2809 23.047 21.2296 22.9383 21.1583 22.8431C21.0869 22.7479 20.9969 22.6683 20.8937 22.6091C20.7905 22.5498 20.6764 22.5122 20.5582 22.4986C20.3149 22.4663 20.0688 22.5313 19.8731 22.6794C19.6774 22.8275 19.548 23.0467 19.5129 23.2896C19.039 25.6646 19.1655 28.1203 19.8808 30.434C20.5962 32.7477 21.8777 34.8463 23.6094 36.5395C24.2031 37.1039 24.846 37.6145 25.5304 38.065C21.9383 38.8853 18.5348 40.3807 15.5012 42.4723C13.0586 44.2207 10.8468 46.2709 8.91873 48.5744C7.02428 50.9088 5.42979 53.4715 4.17253 56.2023C3.4413 57.8623 2.85526 59.5827 2.42095 61.3439C1.94323 63.1295 1.75251 64.9794 1.85592 66.8247C1.83008 66.959 1.83512 67.0979 1.87067 67.2299C1.90623 67.3622 1.97135 67.4846 2.06114 67.588C2.15092 67.6915 2.26302 67.7731 2.38898 67.8269C2.51493 67.8804 2.65144 67.9051 2.78821 67.8983C2.90694 67.8946 3.02381 67.8677 3.1321 67.8187C3.24039 67.7699 3.338 67.7002 3.41932 67.6135C3.50066 67.5271 3.56413 67.4251 3.60612 67.3141C3.64811 67.203 3.66777 67.0846 3.664 66.9658C3.72398 65.333 4.04837 63.7205 4.62453 62.1914C5.18377 60.6248 5.88346 59.1118 6.71513 57.6714C8.04858 55.3415 9.63046 53.1627 11.4331 51.1734C12.2524 50.1849 15.473 47.3878 16.9421 45.8907C17.9933 44.988 19.097 44.1485 20.2474 43.3761C23.1003 41.9747 26.0566 40.7941 29.0901 39.8449C31.8138 40.8233 34.7724 40.9417 37.5655 40.1838C37.8479 40.1838 38.1021 39.8449 38.3846 39.7319C39.75 39.9798 41.0992 40.3099 42.4246 40.7207C44.4031 41.3755 46.2992 42.2572 48.0749 43.348C51.2717 45.5433 54.1518 48.1667 56.6349 51.1454C58.3553 53.1403 59.9052 55.2761 61.2683 57.53C62.0999 58.9707 62.7994 60.4835 63.3587 62.0503C63.935 63.5794 64.2594 65.1919 64.3192 66.8247C64.3155 66.9435 64.3354 67.0616 64.3773 67.173C64.4192 67.284 64.4827 67.3857 64.564 67.4724C64.6453 67.5589 64.7431 67.6286 64.8513 67.6776C64.9595 67.7263 65.0763 67.7532 65.195 67.7569C65.3137 67.7609 65.4321 67.741 65.5432 67.6991C65.6543 67.6572 65.7563 67.5937 65.8427 67.5124C65.9294 67.4311 65.9991 67.3333 66.0478 67.2251C66.0968 67.1169 66.1237 66.9998 66.1274 66.8811C66.2583 65.0403 66.0963 63.1904 65.6472 61.4006Z" fill="#FCF85D"/>
<path fill-rule="evenodd" clip-rule="evenodd" d="M13.4106 23.233C14.8233 22.7906 16.2686 22.46 17.7331 22.2442C19.9649 21.8769 22.2533 21.6792 24.4851 21.4531C27.3102 21.1141 29.7965 20.9446 32.3955 20.7751C34.9945 20.6056 37.6785 20.4361 40.3059 20.4644C43.8824 20.488 47.4521 20.7808 50.9847 21.3401C51.2448 21.3761 51.5089 21.3129 51.7245 21.1631C51.9401 21.0133 52.0914 20.7878 52.1483 20.5315C52.2053 20.2752 52.1639 20.0068 52.0319 19.7798C51.9001 19.5527 51.6876 19.3836 51.4369 19.3061C50.8153 19.1365 50.222 19.0801 49.6003 18.9388C49.8635 18.0202 49.9967 17.0692 49.9959 16.1137C49.8735 14.4599 49.5119 12.8327 48.9223 11.2827C48.4489 10.058 47.8524 8.88425 47.1427 7.77956C46.404 6.66037 45.5098 5.65204 44.487 4.78493C42.7173 3.31452 40.5575 2.39169 38.2718 2.12933C37.3476 1.22902 36.2106 0.577773 34.9664 0.236501C32.848 -0.214421 30.6431 -0.0175464 28.6379 0.801524C27.6011 1.2029 26.6443 1.78653 25.8129 2.52485C25.6558 2.7108 25.5141 2.90921 25.3892 3.11811C23.1499 3.88266 21.1256 5.17083 19.4847 6.87553C18.6562 7.72593 17.9351 8.67473 17.3376 9.70065C16.7245 10.7596 16.2407 11.8883 15.8968 13.0625C15.3186 15.4673 15.3186 17.9749 15.8968 20.3796C14.8695 20.6685 13.8602 21.0175 12.8739 21.4249C12.7438 21.4587 12.6226 21.5203 12.5185 21.6053C12.4144 21.6904 12.33 21.797 12.2709 21.9177C12.2119 22.0385 12.1797 22.1706 12.1765 22.3049C12.1733 22.4393 12.1991 22.5728 12.2524 22.6962C12.29 22.8097 12.3505 22.9144 12.4301 23.0036C12.5098 23.0929 12.6069 23.1649 12.7154 23.2152C12.8239 23.2654 12.9416 23.293 13.0612 23.296C13.1807 23.2991 13.2997 23.2776 13.4106 23.233ZM43.244 8.40108C44.2377 9.66563 45.0993 11.0288 45.8147 12.4693C46.3811 13.4651 46.8449 14.5158 47.1991 15.6051C47.4544 16.524 47.5215 17.4849 47.3968 18.4303C44.6672 17.8618 41.9013 17.4842 39.1193 17.3002C39.3734 16.3962 39.6842 15.4639 39.8537 14.4751C40.1412 13.092 40.3673 11.697 40.5317 10.2939C40.6311 9.12831 40.6311 7.95639 40.5317 6.79079C40.4608 6.21044 40.3186 5.64111 40.1081 5.09572C40.447 5.32171 40.7861 5.54772 41.0969 5.80198C41.8917 6.59993 42.6102 7.47005 43.244 8.40108ZM29.9376 4.02217C31.2355 3.49625 32.6559 3.34928 34.034 3.59839C34.6803 3.71999 35.2906 3.98655 35.8193 4.37804C36.3477 4.76949 36.7803 5.27566 37.0852 5.85848C37.4006 6.46456 37.5924 7.1271 37.6502 7.80781C37.7207 8.63503 37.7207 9.46673 37.6502 10.2939C37.6502 11.763 37.5088 13.119 37.3677 14.3056C37.2255 15.2581 37.0274 16.2014 36.7744 17.1307C34.7324 17.0182 32.6859 17.0182 30.6439 17.1307C29.5987 17.1307 28.5251 17.4415 27.4798 17.611C27.2255 16.5374 26.9995 15.4921 26.8582 14.4468C26.7255 13.0856 26.6689 11.718 26.6887 10.3504C26.6232 9.40986 26.6232 8.46588 26.6887 7.5253C26.7669 7.01255 26.9292 6.51621 27.169 6.05625C27.3989 5.61796 27.7398 5.24776 28.1578 4.9827C28.7087 4.58974 29.3066 4.26708 29.9376 4.02217ZM20.3604 11.537C20.8298 10.6423 21.3781 9.79137 21.999 8.99438C22.5226 8.30152 23.1089 7.65844 23.7506 7.0733C23.7369 8.20859 23.822 9.34288 24.0048 10.4634C24.1882 11.9944 24.4618 13.5132 24.8241 15.0119C25.0732 16.0437 25.3749 17.0621 25.7282 18.063L24.0331 18.3173C21.9425 18.8258 19.9084 19.2778 17.8461 19.8711C17.9148 17.9308 18.3261 16.0179 19.0609 14.2208C19.4492 13.3052 19.8829 12.4095 20.3604 11.537Z" fill="#FCF85D"/>
</g>
<defs>
<clipPath id="clip0_34_115">
<rect width="68" height="68" fill="white"/>
</clipPath>
</defs>
</svg>
