<svg width="71" height="71" viewBox="0 0 71 71" fill="none" xmlns="http://www.w3.org/2000/svg">
<path d="M50.4084 67.8052C50.4084 69.1774 49.296 70.2898 47.9237 70.2899H23.0766C21.1638 70.2879 19.9706 68.216 20.9287 66.5605C21.3724 65.7939 22.1907 65.3214 23.0766 65.3205H47.9237C49.296 65.3205 50.4084 66.4329 50.4084 67.8052ZM62.832 28.0497C62.8537 36.4436 58.9976 44.377 52.3838 49.5456C51.1471 50.4936 50.418 51.9599 50.4084 53.5181V55.3816C50.4084 58.1261 48.1836 60.351 45.439 60.351H25.5613C22.8168 60.351 20.5919 58.1261 20.5919 55.3816V53.5181C20.5908 51.9784 19.8762 50.5261 18.6569 49.586C12.0603 44.4485 8.19259 36.563 8.16827 28.2019C8.08753 13.3992 20.0514 1.0719 34.8417 0.717818C50.1931 0.347897 62.8365 12.6938 62.832 28.0497ZM52.859 25.1488C51.5394 17.778 45.769 12.0089 38.398 10.6908C36.5115 10.3729 34.9883 12.2162 35.6561 14.0089C35.966 14.8409 36.6963 15.4444 37.5718 15.592C42.7183 16.4585 47.0851 20.8254 47.9579 25.9812C48.1609 27.1761 49.1964 28.0502 50.4084 28.0497C50.5489 28.0489 50.689 28.0375 50.8278 28.0155C52.1802 27.7847 53.0895 26.5013 52.859 25.1488Z" fill="#FCF85D"/>
</svg>
