<svg width="76" height="76" viewBox="0 0 76 76" fill="none" xmlns="http://www.w3.org/2000/svg">
<path d="M46.721 31.6667C49.7816 31.6667 52.2627 34.1478 52.2627 37.2083V52.2468C52.2627 60.1185 45.8812 66.5 38.0095 66.5C30.1376 66.5 23.7561 60.1185 23.7561 52.2468V37.2083C23.7561 34.1478 26.2372 31.6667 29.2978 31.6667H46.721ZM22.5824 31.6637C21.4758 33.0024 20.7618 34.6775 20.6168 36.5129L20.5894 37.2083V52.2468C20.5894 54.9277 21.1951 57.4674 22.2771 59.736C21.2349 60.0178 20.1368 60.1667 19.0039 60.1667C12.0062 60.1667 6.33334 54.4939 6.33334 47.4962V37.2083C6.33334 34.3007 8.57252 31.9162 11.4205 31.685L11.875 31.6667L22.5824 31.6637ZM53.4366 31.6637L64.125 31.6667C67.1856 31.6667 69.6667 34.1478 69.6667 37.2083V47.5C69.6667 54.4955 63.9955 60.1667 57 60.1667C55.8714 60.1667 54.777 60.0191 53.7355 59.742C54.6874 57.7537 55.2704 55.5598 55.4012 53.2456L55.4293 52.2468V37.2083C55.4293 35.1016 54.6814 33.1699 53.4366 31.6637ZM38 9.5C43.2469 9.5 47.5 13.7533 47.5 19C47.5 24.2467 43.2469 28.5 38 28.5C32.7532 28.5 28.5 24.2467 28.5 19C28.5 13.7533 32.7532 9.5 38 9.5ZM58.5833 12.6667C62.9556 12.6667 66.5 16.2111 66.5 20.5833C66.5 24.9556 62.9556 28.5 58.5833 28.5C54.2111 28.5 50.6667 24.9556 50.6667 20.5833C50.6667 16.2111 54.2111 12.6667 58.5833 12.6667ZM17.4167 12.6667C21.7889 12.6667 25.3333 16.2111 25.3333 20.5833C25.3333 24.9556 21.7889 28.5 17.4167 28.5C13.0444 28.5 9.5 24.9556 9.5 20.5833C9.5 16.2111 13.0444 12.6667 17.4167 12.6667Z" fill="#FCF85D"/>
</svg>
